# xmcd
#
# Track frame offsets: 
#        150
#        19152
#        33272
#        50222
#        71865
#        76817
#        98517
#        116680
#        131830
#        148232
#        159675
#        172480
#
# Disc length: 2515 seconds
#
# Revision: 0
# Processed by: cddbd v1.5.2PL0 Copyright (c) Steve Scherf et al.
# Submitted via: ExactAudioCopy v0.95a1
#
DISCID=b209d10c
DTITLE=Yonder Mountain String Band - Yonder Mountain String Band
DYEAR=2006
DGENRE=Bluegrass
TTITLE0=Sidewalk Stars
TTITLE1=I Ain't Been Myself In Years
TTITLE2=How 'Bout You?
TTITLE3=Angel
TTITLE4=Fastball
TTITLE5=East Nashville Easter
TTITLE6=Just The Same
TTITLE7=Classic Situation
TTITLE8=Night Out
TTITLE9=Midwest Gospel Radio
TTITLE10=Troubled Mind
TTITLE11=Wind's On Fire
EXTD=
EXTT0=
EXTT1=
EXTT2=
EXTT3=
EXTT4=
EXTT5=
EXTT6=
EXTT7=
EXTT8=
EXTT9=
EXTT10=
EXTT11=
PLAYORDER=
